<svg xmlns="http://www.w3.org/2000/svg" xmlns:xlink="http://www.w3.org/1999/xlink" width="100" zoomAndPan="magnify" viewBox="0 0 75 74.999997" height="100" preserveAspectRatio="xMidYMid meet" version="1.0"><defs><clipPath id="2936a38699"><path d="M 13 15 L 65 15 L 65 63 L 13 63 Z M 13 15 " clip-rule="nonzero"/></clipPath><clipPath id="d3b0f993b0"><path d="M 14.207031 13.996094 L 65.015625 18.40625 L 61.0625 63.984375 L 10.253906 59.574219 Z M 14.207031 13.996094 " clip-rule="nonzero"/></clipPath><clipPath id="fc0faec577"><path d="M 14.210938 13.980469 L 65.019531 18.390625 L 61.0625 63.96875 L 10.253906 59.5625 Z M 14.210938 13.980469 " clip-rule="nonzero"/></clipPath></defs><g clip-path="url(#2936a38699)"><g clip-path="url(#d3b0f993b0)"><g clip-path="url(#fc0faec577)"><path fill="#d95555" d="M 30.765625 33.671875 C 32.289062 32.390625 33.152344 30.613281 33.308594 28.773438 C 33.46875 26.9375 32.929688 25.035156 31.648438 23.511719 C 30.367188 21.988281 28.589844 21.128906 26.75 20.96875 C 24.910156 20.808594 23.011719 21.351562 21.488281 22.632812 C 19.964844 23.910156 19.101562 25.691406 18.941406 27.527344 C 18.785156 29.367188 19.324219 31.265625 20.605469 32.792969 L 37.1875 52.523438 L 59.460938 20.667969 L 64.257812 24.03125 L 37.605469 62.152344 L 16.109375 36.570312 C 13.785156 33.804688 12.800781 30.355469 13.089844 27.019531 C 13.378906 23.683594 14.941406 20.457031 17.707031 18.132812 C 20.472656 15.808594 23.921875 14.824219 27.257812 15.113281 C 30.59375 15.402344 33.820312 16.964844 36.144531 19.734375 C 38.46875 22.5 39.453125 25.945312 39.164062 29.28125 C 38.875 32.621094 37.3125 35.84375 34.546875 38.171875 Z M 30.765625 33.671875 " fill-opacity="1" fill-rule="nonzero"/><path fill="#d95555" d="M 30.765625 33.671875 C 32.289062 32.390625 33.152344 30.613281 33.308594 28.773438 C 33.46875 26.9375 32.929688 25.035156 31.648438 23.511719 C 30.367188 21.988281 28.589844 21.128906 26.75 20.96875 C 24.910156 20.808594 23.011719 21.351562 21.488281 22.632812 C 19.964844 23.910156 19.101562 25.691406 18.941406 27.527344 C 18.785156 29.367188 19.324219 31.265625 20.605469 32.792969 L 37.1875 52.523438 L 59.460938 20.667969 L 64.257812 24.03125 L 37.605469 62.152344 L 16.109375 36.570312 C 13.785156 33.804688 12.800781 30.355469 13.089844 27.019531 C 13.378906 23.683594 14.941406 20.457031 17.707031 18.132812 C 20.472656 15.808594 23.921875 14.824219 27.257812 15.113281 C 30.59375 15.402344 33.820312 16.964844 36.144531 19.734375 C 38.46875 22.5 39.453125 25.945312 39.164062 29.28125 C 38.875 32.621094 37.3125 35.84375 34.546875 38.171875 Z M 30.765625 33.671875 " fill-opacity="1" fill-rule="nonzero"/><path fill="#d95555" d="M 30.765625 33.671875 C 32.289062 32.390625 33.152344 30.613281 33.308594 28.773438 C 33.46875 26.9375 32.929688 25.035156 31.648438 23.511719 C 30.367188 21.988281 28.589844 21.128906 26.75 20.96875 C 24.910156 20.808594 23.011719 21.351562 21.488281 22.632812 C 19.964844 23.910156 19.101562 25.691406 18.941406 27.527344 C 18.785156 29.367188 19.324219 31.265625 20.605469 32.792969 L 37.1875 52.523438 L 59.460938 20.667969 L 64.257812 24.03125 L 37.605469 62.152344 L 16.109375 36.570312 C 13.785156 33.804688 12.800781 30.355469 13.089844 27.019531 C 13.378906 23.683594 14.941406 20.457031 17.707031 18.132812 C 20.472656 15.808594 23.921875 14.824219 27.257812 15.113281 C 30.59375 15.402344 33.820312 16.964844 36.144531 19.734375 C 38.46875 22.5 39.453125 25.945312 39.164062 29.28125 C 38.875 32.621094 37.3125 35.84375 34.546875 38.171875 Z M 30.765625 33.671875 " fill-opacity="1" fill-rule="nonzero"/></g></g></g></svg>